<?xml version="1.0" encoding="UTF-8" standalone="no"?>
<!-- Created with Inkscape (http://www.inkscape.org/) -->

<svg
   width="180"
   height="180"
   viewBox="0 0 180 180"
   version="1.1"
   id="svg5"
   inkscape:version="1.1.1 (3bf5ae0d25, 2021-09-20)"
   sodipodi:docname="favicon.svg"
   xmlns:inkscape="http://www.inkscape.org/namespaces/inkscape"
   xmlns:sodipodi="http://sodipodi.sourceforge.net/DTD/sodipodi-0.dtd"
   xmlns:xlink="http://www.w3.org/1999/xlink"
   xmlns="http://www.w3.org/2000/svg"
   xmlns:svg="http://www.w3.org/2000/svg">
  <sodipodi:namedview
     id="namedview7"
     pagecolor="#505050"
     bordercolor="#eeeeee"
     borderopacity="1"
     inkscape:pageshadow="0"
     inkscape:pageopacity="0"
     inkscape:pagecheckerboard="0"
     inkscape:document-units="px"
     showgrid="false"
     inkscape:zoom="3.1505536"
     inkscape:cx="25.86847"
     inkscape:cy="86.492736"
     inkscape:window-width="1920"
     inkscape:window-height="991"
     inkscape:window-x="-9"
     inkscape:window-y="-9"
     inkscape:window-maximized="1"
     inkscape:current-layer="layer1" />
  <defs
     id="defs2">
    <linearGradient
       inkscape:collect="always"
       id="linearGradient1064">
      <stop
         style="stop-color:#aa54c4;stop-opacity:1"
         offset="0"
         id="stop1060" />
      <stop
         style="stop-color:#823da6;stop-opacity:1"
         offset="0.49849159"
         id="stop2880" />
      <stop
         style="stop-color:#5a2a85;stop-opacity:1"
         offset="1"
         id="stop1062" />
    </linearGradient>
    <linearGradient
       inkscape:collect="always"
       xlink:href="#linearGradient1064"
       id="linearGradient1760"
       gradientUnits="userSpaceOnUse"
       x1="13.632174"
       y1="120.73965"
       x2="156.71468"
       y2="62.161098" />
  </defs>
  <g
     inkscape:label="Слой 1"
     inkscape:groupmode="layer"
     id="layer1">
    <path
       id="path2"
       style="mix-blend-mode:normal;fill:url(#linearGradient1760);fill-opacity:1;fill-rule:evenodd;stroke-width:1.77673"
       d="M 90.453125,1.6035156 C 81.70902,1.6027528 74.620331,8.6914416 74.621094,17.435547 c 0.001,1.500572 0.215423,2.993375 0.636718,4.433594 L 38.662109,42.996094 c -2.985553,-3.126886 -7.120057,-4.896699 -11.443359,-4.898438 -8.74258,3.16e-4 -15.829762,7.087498 -15.830078,15.830078 0.01666,7.284827 5.00263,13.617855 12.080078,15.34375 v 42.328126 c -7.077448,1.72589 -12.063418,8.05892 -12.080078,15.34375 3.15e-4,8.74258 7.087497,15.82976 15.830078,15.83008 4.312536,-0.0139 8.432753,-1.78653 11.408203,-4.90821 l 36.630859,21.14649 c -0.421294,1.44022 -0.635679,2.93302 -0.636718,4.43359 -7.62e-4,8.7441 7.087926,15.83279 15.832031,15.83203 8.743341,-3.2e-4 15.830835,-7.08869 15.830075,-15.83203 -0.001,-1.49992 -0.21561,-2.99205 -0.63672,-4.43164 l 36.625,-21.14453 c 2.97565,3.11975 7.09497,4.89092 11.40625,4.9043 8.74258,-3.1e-4 15.82977,-7.0875 15.83008,-15.83008 -0.001,-7.2942 -4.98661,-13.64327 -12.07226,-15.375 V 69.279297 c 7.07364,-1.728776 12.05559,-8.059989 12.07226,-15.341797 -3.2e-4,-8.742581 -7.0875,-15.829763 -15.83008,-15.830078 -4.31128,0.01338 -8.4306,1.784552 -11.40625,4.904297 l -36.625,-21.144531 c 0.42111,-1.43959 0.6355,-2.931723 0.63672,-4.431641 C 106.28396,8.6922055 99.196467,1.6038331 90.453125,1.6035156 Z M 79.046875,28.359375 c 0.1567,0.163575 0.316894,0.323769 0.480469,0.480469 L 31.658203,111.75195 c -0.223247,-0.0655 -0.447911,-0.12605 -0.673828,-0.18164 V 69.267578 c 7.069831,-1.73165 12.047766,-8.06105 12.064453,-15.339844 -0.0011,-1.495805 -0.214119,-2.98391 -0.632812,-4.419922 z m 22.810545,0 36.625,21.144531 c -0.4213,1.440218 -0.63568,2.933021 -0.63672,4.433594 0.0169,7.282382 4.9998,13.613787 12.07422,15.341797 v 42.322263 c -0.2263,0.0439 -0.45161,0.0927 -0.67578,0.14649 L 101.37695,28.839844 c 0.16358,-0.1567 0.32377,-0.316894 0.48047,-0.480469 z M 90.900391,43.353516 112.15625,80.765625 69.871094,80.542969 Z m -27.609375,50.988281 53.902344,0.271484 20.72266,33.292969 c 0.0593,1.17434 0.24929,2.33843 0.5664,3.4707 l -36.59375,21.12891 c -2.985009,-3.12205 -7.116116,-4.8888 -11.435545,-4.89063 -4.311566,0.0139 -8.430936,1.78579 -11.40625,4.90625 L 42.414062,131.37305 c 0.322905,-1.15176 0.51423,-3.68303 0.570313,-4.87788 z"
       sodipodi:nodetypes="ccccccccccccccccccccccccccccccccccccccccccccccccccccccccc" />
  </g>
</svg>
